/* XPM */
static char *disk_manager[] = {
/* columns rows colors chars-per-pixel */
"24 24 120 2",
"   c #666864",
".  c #676964",
"X  c #6E706B",
"o  c #747566",
"O  c #7B7C61",
"+  c #777975",
"@  c #7F817D",
"#  c #B5B03F",
"$  c #B8B33A",
"%  c #C0BA39",
"&  c #FEF316",
"*  c #FFF416",
"=  c #FFF417",
"-  c #DCD431",
";  c #E7E03A",
":  c #E8E03A",
">  c #9E9C4B",
",  c #908E54",
"<  c #CAC441",
"1  c #D2CB49",
"2  c #ECE441",
"3  c #FBF34C",
"4  c #F9F14F",
"5  c #FAF14F",
"6  c #FBF34E",
"7  c #FBF351",
"8  c #FCF351",
"9  c #FCF452",
"0  c #FDF552",
"q  c #F6EF6A",
"w  c #F6EF6E",
"e  c #F7F061",
"r  c #F7F06A",
"t  c #FCF46B",
"y  c #FCF56C",
"u  c #FCF66D",
"i  c #E6E071",
"p  c #F5EF70",
"a  c #F6EF70",
"s  c #F4EE7F",
"d  c #FCF676",
"f  c #FDF676",
"g  c #FDF677",
"h  c #FEF677",
"j  c #838580",
"k  c #8E8F8D",
"l  c gray57",
"z  c gray58",
"x  c #979797",
"c  c #989898",
"v  c #9B9D99",
"b  c #A3A4A2",
"n  c #A5A5A5",
"m  c #A9A9A9",
"M  c #ACACAC",
"N  c gray69",
"B  c #B1B1B0",
"V  c #B2B2B2",
"C  c gray72",
"Z  c gray73",
"A  c #BBBBBB",
"S  c #BCBCBC",
"D  c #BDBDBC",
"F  c #F4EE80",
"G  c #FAF486",
"H  c #FCF88B",
"J  c #FEF88B",
"K  c #F1EDA0",
"L  c #F1EDA1",
"P  c #F1EDA7",
"I  c #F0EDAA",
"U  c #F1EEAA",
"Y  c #F0EDAF",
"T  c #FCF8AA",
"R  c #FDF9AA",
"E  c #EFECBA",
"W  c #F8F5B2",
"Q  c #C0C0C0",
"!  c #C1C1C1",
"~  c gray77",
"^  c #C5C5C5",
"/  c gray78",
"(  c #C8C8C8",
")  c #CBCBCB",
"_  c #CCCCCB",
"`  c gray80",
"'  c #CDCDCD",
"]  c #CECECE",
"[  c #D0D0D0",
"{  c gray82",
"}  c gray84",
"|  c #EEECC6",
" . c #EDECCD",
".. c #F7F5C0",
"X. c #F7F5C2",
"o. c #ECEBD6",
"O. c #E5E5DD",
"+. c #EDECDA",
"@. c #ECEBDC",
"#. c #F7F5D7",
"$. c #FEFBD5",
"%. c gray88",
"&. c #E1E1E1",
"*. c #E2E2E1",
"=. c #E2E3E1",
"-. c gray89",
";. c gray90",
":. c #E6E6E6",
">. c #E7E7E7",
",. c #E9E9E8",
"<. c #EBEBE8",
"1. c #EAEBEA",
"2. c gray92",
"3. c #ECECEB",
"4. c #ECECEC",
"5. c gray93",
"6. c #F1F1F1",
"7. c #F3F3F3",
"8. c #F6F6F6",
"9. c None",
/* pixels */
"9.9.9.9.9.9.9.9.9.9.9.9.9.9.9.9.9.9.9.9.9.9.9.9.",
"9.9.9.9.9.9.9.9.9.9.9.9.9.9.9.9.9.9.9.9.9.9.9.9.",
"9.9.9.9.9.9.9.9.9.9.9.9.9.9.9.* = & 9.9.9.9.9.9.",
"9.9.9.9.X X X X X X X O > % - ; 2 : - % $ 9.9.9.",
"9.9.9.X 8.8.8.8.8.8.8.X.G 9 0 g J h 0 9 # 9.9.9.",
"9.9.9.j 4.8.2.2.2.2.2.I w 3 u R $.R t 3 < 9.9.9.",
"9.9.9.v 4.1.8.2.2.2.2.I w 3 u R $.T y 3 1 9.9.9.",
"9.9.X _ -.2.2.2.2.2.2.E F 4 8 d H f 7 4 i , 9.9.",
"9.9.X :.-.2.2.2.2.2.2.o.K a 4 6 8 6 5 p U o 9.9.",
"9.9.+ 4.8.2.2.2.2.2.2.<. .L s q e r F W +.@ 9.9.",
"9.9.k 4.;.8.8.5.2.2.2.2.<.@.| Y P ..#.O.3.k 9.9.",
"9.X C >.,.>.;.8.8.8.8.8.8.8.8.8.8.;.;.*.%.B X 9.",
"9.. [ 7.;.;.;.;.;.;.;.;.;.;.;.;.;.;.*.=.6.]   9.",
"9.X 8.8.8.8.8.8.8.8.8.8.8.8.8.8.8.8.8.8.8.8.X 9.",
"9.X &.] ] ] ] ] ] ] ' ' ' ' ' ' ' ` ` ` ` &.X 9.",
"9.X &.( 8.l c b N V A S ^ { Q } Q } Q } Q &.X 9.",
"9.X &.( 8.z x n m M Z ! ~ { Q } Q } Q } Q &.X 9.",
"9.X &.( 8.D S Q Q Q Q / / { Q } Q } Q } Q &.X 9.",
"9.X ) &.&.&.&.&.&.&.&.&.&.&.&.&.&.&.&.&.&.( X 9.",
"9.9.X X X X X X X X X X X X X X X X X X X X 9.9.",
"9.9.9.9.9.9.9.9.9.9.9.9.9.9.9.9.9.9.9.9.9.9.9.9.",
"9.9.9.9.9.9.9.9.9.9.9.9.9.9.9.9.9.9.9.9.9.9.9.9.",
"9.9.9.9.9.9.9.9.9.9.9.9.9.9.9.9.9.9.9.9.9.9.9.9.",
"9.9.9.9.9.9.9.9.9.9.9.9.9.9.9.9.9.9.9.9.9.9.9.9."
};
